<svg xmlns="http://www.w3.org/2000/svg" viewBox="0 0 515 515" fill="currentColor"><path fill-rule="evenodd" d="M219.5 511.0C187.3 506.1 156.3 495.2 128.4 478.9C113.3 470.0 94.5 456.1 94.6 453.9C94.7 453.0 125.6 415.3 163.4 370.2C201.1 325.0 232.0 287.7 232.0 287.2C232.0 286.7 231.1 285.5 230.0 284.5C227.7 282.4 239.5 272.9 138.0 357.9L61.5 421.9L57.7 417.7C45.8 404.5 27.4 372.7 18.7 350.0C9.4 325.9 -0.3 281.7 3.4 280.5C4.0 280.3 50.4 276.0 106.5 271.0C233.1 259.8 219.0 261.5 219.0 257.6L219.0 254.5L114.2 245.1C56.6 240.0 7.9 235.6 5.9 235.3L2.4 234.8L3.3 227.2C7.1 193.3 20.3 154.7 38.3 125.2C44.8 114.6 59.8 94.0 61.0 94.0C61.5 94.0 99.0 125.1 144.4 163.0C189.9 201.0 227.4 232.0 227.9 232.0C230.2 232.0 232.3 228.0 230.9 226.3C229.5 224.5 127.8 102.7 105.3 75.8L93.1 61.2L100.8 55.2C127.7 34.4 160.6 18.2 192.8 9.9C211.4 5.1 235.0 1.7 235.0 3.8C235.0 4.2 239.3 52.0 244.5 110.0C249.7 168.0 254.0 216.3 254.0 217.2C254.0 218.6 254.8 219.0 257.5 219.0C259.6 219.0 261.0 218.5 261.0 217.8C261.0 214.0 280.2 3.4 280.6 3.1C280.9 2.8 285.4 3.1 290.6 3.8C333.8 9.3 376.3 26.5 411.1 52.8C416.8 57.0 421.3 60.9 421.3 61.3C421.2 61.8 390.9 98.4 353.9 142.7C316.9 187.0 285.8 224.3 284.7 225.7C282.9 228.0 282.9 228.2 284.5 230.0C285.5 231.1 286.7 232.0 287.2 232.0C287.7 232.0 325.0 201.1 370.1 163.4C415.3 125.7 452.8 94.6 453.5 94.4C455.0 93.8 466.3 108.5 475.2 122.7C488.7 144.2 501.6 175.7 507.4 201.6C509.7 211.7 513.1 234.1 512.5 234.8C512.4 235.0 463.6 239.5 404.1 244.8L296.0 254.5L296.0 257.6C296.0 261.5 282.1 259.8 408.5 271.1C465.1 276.1 511.8 280.5 512.2 280.9C512.5 281.2 512.0 287.4 510.9 294.5C504.7 336.8 488.1 377.1 463.3 410.1C459.0 415.8 455.2 420.9 454.9 421.4C454.5 421.8 417.4 391.5 372.4 353.9C276.5 273.7 287.4 282.3 284.9 284.6C283.9 285.5 283.0 286.7 283.0 287.1C283.0 287.5 314.0 325.0 352.0 370.5C389.9 416.0 421.0 453.6 421.0 454.1C421.0 456.6 393.4 475.7 378.0 483.9C359.2 493.8 334.8 502.9 314.0 507.5C304.1 509.7 281.0 513.4 280.4 512.8C280.2 512.5 261.0 299.7 261.0 297.4C261.0 296.7 259.5 296.2 257.5 296.2C254.8 296.2 254.0 296.6 254.0 298.0C254.0 299.0 249.7 347.4 244.5 405.7C239.3 463.9 235.0 511.8 235.0 512.2C235.0 513.3 233.5 513.1 219.5 511.0Z"/></svg>
