<svg xmlns="http://www.w3.org/2000/svg" viewBox="0 0 644 238" fill="currentColor"><path fill-rule="evenodd" d="M289.0 235.3C76.8 226.0 -52.4 148.6 24.0 76.7C102.2 3.1 354.7 -21.2 523.5 28.5C654.5 67.1 680.3 136.9 582.0 187.0C515.6 220.8 398.2 240.2 289.0 235.3ZM389.0 209.6C490.3 200.9 573.4 175.1 605.6 142.3C621.9 125.8 621.8 112.0 605.3 95.6C548.3 38.9 356.3 10.2 200.0 35.0C109.1 49.5 38.5 80.6 27.3 111.3C14.5 146.5 96.1 188.3 209.0 204.4C260.6 211.8 337.4 214.0 389.0 209.6ZM115.9 171.1L113.0 168.2L113.0 123.0C113.0 74.1 113.0 73.9 118.7 68.8C124.1 63.9 121.8 64.0 216.9 64.0L305.9 64.0L308.7 66.4C310.9 68.3 311.5 69.6 311.5 73.0C311.5 76.4 310.9 77.7 308.7 79.6L305.9 82.0L238.0 82.0L170.2 82.0L167.1 84.6C162.3 88.6 162.3 103.4 167.1 107.4L170.2 110.0L196.3 110.0C220.5 110.0 222.8 110.2 227.0 112.1C247.7 121.5 246.0 150.0 224.3 156.6C210.2 161.0 196.1 151.1 194.3 135.7C193.3 127.3 191.2 126.0 179.2 126.0C170.7 126.0 168.9 126.3 166.6 128.1L164.0 130.1L164.0 148.1C164.0 174.8 164.9 174.0 138.0 174.0L118.8 174.0L115.9 171.1ZM331.4 172.5C327.1 169.5 326.9 167.6 327.2 121.4C327.5 72.0 327.2 74.2 335.3 67.6L339.2 64.5L427.7 64.2L516.3 64.0L520.7 66.1C523.4 67.4 526.2 69.8 527.8 72.3L530.5 76.4L530.8 122.2L531.1 168.1L528.1 171.0L525.2 174.0L505.6 174.0C486.4 174.0 486.1 174.0 483.3 171.6L480.5 169.2L480.0 128.0L479.5 86.8L476.7 84.4C473.9 82.0 473.8 82.0 450.9 82.0C425.8 82.0 424.0 82.4 424.0 88.4C424.0 92.8 426.3 94.2 435.5 95.4C448.6 97.2 457.9 114.6 452.6 127.1C445.2 144.6 420.5 147.3 410.3 131.8C407.5 127.7 407.5 127.4 407.0 107.7L406.5 87.8L403.2 84.9C397.2 79.6 382.1 81.2 379.2 87.5C378.3 89.4 378.0 101.0 378.0 129.1L378.0 168.2L375.1 171.1L372.2 174.0L352.8 174.0C337.4 174.0 333.0 173.7 331.4 172.5Z"/></svg>
