<svg xmlns="http://www.w3.org/2000/svg" viewBox="0 0 487 487" fill="currentColor"><path fill-rule="evenodd" d="M227.0 484.4C225.1 484.2 219.2 483.5 214.0 482.9C63.1 465.5 -33.7 311.4 14.9 165.9C71.2 -2.5 287.2 -53.2 413.5 72.5C547.3 205.6 482.3 435.1 298.5 478.3C277.6 483.2 242.5 486.2 227.0 484.4ZM234.0 421.0L234.0 378.0L213.9 378.0C195.3 378.0 193.9 378.1 194.4 379.8C194.6 380.7 196.2 386.7 197.9 393.0C203.8 415.5 212.2 436.5 220.4 449.3C223.7 454.5 232.2 464.0 233.5 464.0C233.8 464.0 234.0 444.6 234.0 421.0ZM258.1 459.2C270.2 446.6 279.6 426.6 288.6 394.1C293.5 376.1 295.5 378.0 272.0 378.0L252.0 378.0L252.0 421.0C252.0 444.6 252.4 464.0 252.8 464.0C253.2 464.0 255.6 461.9 258.1 459.2ZM201.6 452.3C193.6 438.6 185.0 415.6 178.9 391.2L175.5 378.0L151.7 378.0L127.9 378.0L131.6 384.8C146.3 411.3 161.8 430.2 180.4 444.4C186.9 449.4 204.0 459.3 204.8 458.6C204.9 458.4 203.5 455.6 201.6 452.3ZM290.0 454.9C310.6 443.7 329.0 426.0 344.2 402.9C349.7 394.5 358.0 379.9 358.0 378.7C358.0 378.3 347.4 378.0 334.5 378.0L311.0 378.0L310.4 380.8C304.5 407.5 294.7 435.3 285.6 451.3C283.2 455.5 281.5 459.0 281.8 459.0C282.2 459.0 285.9 457.1 290.0 454.9ZM150.8 441.2C136.1 426.0 123.4 407.9 113.3 387.5L108.5 378.0L86.7 378.0L64.9 378.0L69.7 384.2C85.2 404.2 112.9 427.2 136.0 439.5C143.4 443.4 159.1 451.0 159.9 451.0C160.1 451.0 156.0 446.6 150.8 441.2ZM343.4 443.3C364.3 432.8 380.9 421.0 398.2 404.1C408.9 393.8 421.0 380.2 421.0 378.6C421.0 378.3 411.4 378.0 399.6 378.0L378.2 378.0L372.5 389.2C362.3 409.5 349.8 427.1 334.6 442.8C325.5 452.2 325.6 452.2 343.4 443.3ZM100.7 358.7C91.2 333.8 84.1 298.1 81.4 260.8L80.8 252.0L50.3 252.0L19.7 252.0L20.4 260.8C22.8 291.6 32.3 323.5 47.3 350.8L52.4 360.0L76.8 360.0C96.0 360.0 101.1 359.7 100.7 358.7ZM172.0 359.6C172.0 359.5 171.1 353.5 170.0 346.4C166.1 320.7 163.0 283.1 163.0 261.8L163.0 252.0L130.9 252.0L98.8 252.0L99.4 261.8C101.8 297.5 109.3 333.2 119.5 358.2C120.2 359.9 122.4 360.0 146.1 360.0C160.3 360.0 172.0 359.8 172.0 359.6ZM234.0 306.0L234.0 252.0L207.5 252.0L181.0 252.0L181.0 262.9C181.0 283.4 184.5 323.0 188.6 349.2L190.3 360.0L212.1 360.0L234.0 360.0L234.0 306.0ZM296.4 358.2C299.7 347.9 306.0 282.6 306.0 258.8L306.0 252.0L279.0 252.0L252.0 252.0L252.0 306.0L252.0 360.0L273.9 360.0C293.9 360.0 295.9 359.8 296.4 358.2ZM371.8 344.8C379.8 320.4 385.2 293.0 386.5 269.7C386.8 264.1 387.3 257.8 387.5 255.8L388.0 252.0L356.2 252.0L324.3 252.0L323.6 268.2C322.4 298.6 319.9 325.2 315.4 355.8L314.7 360.0L340.8 360.0L366.8 360.0L371.8 344.8ZM436.1 356.8C451.8 331.8 463.3 294.8 466.5 258.8L467.1 252.0L436.0 252.0L405.0 252.0L405.0 259.4C405.0 282.9 397.3 325.5 388.6 350.9C387.2 355.0 386.0 358.7 386.0 359.2C386.0 359.6 396.8 360.0 410.0 360.0L434.0 360.0L436.1 356.8ZM81.4 226.2C84.5 187.6 89.1 162.7 98.0 136.6C99.6 131.6 101.0 127.5 101.0 127.3C101.0 127.1 90.0 127.0 76.7 127.0L52.3 127.0L47.2 136.2C32.2 163.4 23.0 194.1 20.4 225.8L19.7 234.0L50.3 234.0L80.8 234.0L81.4 226.2ZM163.0 224.2C163.0 203.9 166.2 166.0 170.0 140.6C171.1 133.5 172.0 127.5 172.0 127.4C172.0 127.2 160.3 127.0 146.1 127.0C122.4 127.0 120.2 127.1 119.5 128.8C109.3 153.7 102.0 188.9 99.4 224.8L98.8 234.0L130.9 234.0L163.0 234.0L163.0 224.2ZM234.0 180.5L234.0 127.0L212.1 127.0L190.3 127.0L188.6 137.8C184.5 163.7 181.0 203.6 181.0 223.6L181.0 234.0L207.5 234.0L234.0 234.0L234.0 180.5ZM306.0 227.5C306.0 208.5 301.9 161.1 298.2 138.0L296.5 127.5L274.2 127.2L252.0 127.0L252.0 180.5L252.0 234.0L279.0 234.0L306.0 234.0L306.0 227.5ZM387.5 231.2C387.3 229.7 386.8 223.7 386.5 217.9C385.3 194.5 379.8 166.5 371.8 142.2L366.8 127.0L340.9 127.0C319.8 127.0 315.0 127.3 315.0 128.4C315.0 129.1 315.9 135.5 316.9 142.6C320.4 165.3 324.0 209.6 324.0 229.2L324.0 234.0L356.0 234.0L387.9 234.0L387.5 231.2ZM466.5 228.2C464.1 204.5 461.0 189.1 454.9 171.2C450.8 159.3 441.5 139.0 436.7 131.2L434.0 127.0L410.0 127.0C396.8 127.0 386.0 127.4 386.0 127.8C386.0 128.3 387.2 132.0 388.6 136.1C397.3 161.2 405.0 204.1 405.0 227.1L405.0 234.0L436.0 234.0L467.0 234.0L466.5 228.2ZM114.7 96.7C125.0 76.4 138.4 57.7 153.2 42.8C157.0 39.1 159.8 36.0 159.4 36.0C159.0 36.0 152.8 38.9 145.6 42.4C114.0 58.0 86.9 80.1 66.1 107.2C64.8 108.9 66.0 109.0 86.6 109.0L108.5 109.0L114.7 96.7ZM177.9 99.2C183.7 75.1 193.5 48.1 201.5 34.8C205.7 27.6 205.6 27.2 199.8 30.1C180.1 40.0 160.1 58.3 145.2 79.8C139.1 88.7 129.0 106.1 129.0 107.8C129.0 108.7 135.0 109.0 152.3 109.0L175.6 109.0L177.9 99.2ZM234.0 65.9L234.0 22.9L230.9 25.1C220.0 32.8 205.4 63.4 197.5 95.1C196.1 100.8 194.7 106.3 194.4 107.2C193.9 108.9 195.3 109.0 213.9 109.0L234.0 109.0L234.0 65.9ZM292.0 107.4C292.0 101.5 282.4 70.7 276.0 55.9C269.6 41.1 256.9 23.0 252.9 23.0C252.4 23.0 252.0 41.1 252.0 66.0L252.0 109.0L272.0 109.0C289.5 109.0 292.0 108.8 292.0 107.4ZM358.0 108.5C358.0 107.3 352.5 97.1 347.4 88.9C331.5 63.3 309.7 42.0 288.3 31.1C280.6 27.3 280.3 27.3 283.0 31.0C291.3 42.6 304.5 78.8 310.4 106.2L311.0 109.0L334.5 109.0C347.4 109.0 358.0 108.8 358.0 108.5ZM421.0 108.2C421.0 107.8 419.3 105.4 417.2 102.9C395.5 76.7 372.6 58.3 343.1 43.5C325.6 34.7 325.5 34.7 335.7 45.3C350.7 60.8 366.8 84.2 375.1 102.6L378.0 109.0L399.5 109.0C411.3 109.0 421.0 108.7 421.0 108.2Z"/></svg>
