<svg xmlns="http://www.w3.org/2000/svg" viewBox="0 0 644 215" fill="currentColor"><path fill-rule="evenodd" d="M175.0 212.4C145.9 210.8 115.0 208.1 106.8 206.4C103.1 205.7 103.3 204.0 107.6 197.0C111.5 190.7 111.4 189.0 107.2 189.0C105.7 189.0 97.4 187.9 88.6 186.5C9.8 174.1 -17.5 144.4 17.3 108.8C51.8 73.4 125.5 42.7 227.7 21.1C250.3 16.3 250.4 16.3 249.5 19.1C248.9 20.8 249.1 21.1 250.7 20.7C254.1 19.7 282.4 15.1 300.5 12.6C459.0 -9.2 589.3 4.0 629.3 45.9C691.5 111.1 507.2 194.9 266.0 211.0C250.0 212.1 186.5 213.0 175.0 212.4ZM127.1 172.5C131.0 168.9 134.7 166.0 135.3 166.0C136.0 166.0 140.6 166.5 145.6 167.0C183.9 171.0 250.7 170.0 305.5 164.5C464.5 148.5 600.9 100.0 601.0 59.4C601.0 37.6 549.4 19.8 465.5 12.8C445.6 11.1 365.9 11.1 344.0 12.8C309.2 15.5 254.1 21.6 247.7 23.6C246.8 23.9 244.7 25.2 243.1 26.6C240.8 28.5 236.8 29.6 221.3 32.4C160.6 43.6 109.1 58.7 69.5 77.0C-8.0 112.8 7.5 156.2 105.0 176.5C120.3 179.7 119.0 179.9 127.1 172.5Z"/></svg>
